<?xml version="1.0" encoding="UTF-8"?>
<svg xmlns="http://www.w3.org/2000/svg" xmlns:xlink="http://www.w3.org/1999/xlink" width="1012.5pt" height="487.499991pt" viewBox="0 0 1012.5 487.499991" version="1.2">
<defs>
<clipPath id="clip1">
  <path d="M 546 76 L 985 76 L 985 412.929688 L 546 412.929688 Z M 546 76 "/>
</clipPath>
<clipPath id="clip2">
  <path d="M 329 183 L 552 183 L 552 332 L 329 332 Z M 329 183 "/>
</clipPath>
<clipPath id="clip3">
  <path d="M 425.089844 389.300781 L 294.167969 258.378906 L 429.332031 123.21875 L 560.253906 254.140625 Z M 425.089844 389.300781 "/>
</clipPath>
<clipPath id="clip4">
  <path d="M 425.089844 389.300781 L 294.167969 258.378906 L 429.332031 123.21875 L 560.253906 254.140625 Z M 425.089844 389.300781 "/>
</clipPath>
<clipPath id="clip5">
  <path d="M 425.089844 389.300781 L 294.136719 258.347656 L 429.171875 123.308594 L 560.128906 254.261719 Z M 425.089844 389.300781 "/>
</clipPath>
<clipPath id="clip6">
  <path d="M 153 100 L 314 100 L 314 413.269531 L 153 413.269531 Z M 153 100 "/>
</clipPath>
</defs>
<g id="surface1">
<g clip-path="url(#clip1)" clip-rule="nonzero">
<path style=" stroke:none;fill-rule:nonzero;fill:rgb(54.899597%,32.159424%,100%);fill-opacity:1;" d="M 630.648438 159.683594 C 627.351562 156.25 623.621094 156.867188 621.855469 158.945312 C 619.585938 161.617188 619.644531 166.777344 618.414062 169.640625 C 616.332031 174.492188 616.132812 176.734375 623.835938 171.632812 C 629.417969 167.933594 635.546875 165.058594 641.738281 162.035156 C 642.765625 155.050781 646.289062 148.238281 649.90625 143.003906 C 656.578125 133.367188 668.714844 131.738281 670.304688 121.03125 C 673.832031 131.804688 658.40625 138.152344 654.027344 145.714844 C 650.855469 151.179688 647.46875 158.632812 647.164062 165.367188 C 647.246094 173.019531 651.144531 171.757812 654.882812 166.75 C 658.273438 162.207031 662.546875 158.34375 667.359375 155.234375 C 671.746094 146.160156 662.542969 148.375 658.175781 155.855469 C 659.3125 149.863281 661.4375 144.828125 668.957031 143.449219 C 674.421875 142.445312 675.152344 143.675781 679.152344 139.6875 C 683.597656 135.261719 688.152344 131.382812 693.589844 128.988281 C 695.480469 126.675781 698.820312 122.1875 701.28125 120.75 C 709.269531 116.085938 704.769531 115.738281 698.386719 116.980469 C 692.324219 118.53125 688.785156 122.371094 684.613281 126.582031 C 687.933594 111.210938 707.980469 108.765625 720.636719 112.035156 C 725.300781 110.28125 730.265625 109.046875 735.507812 108.332031 C 741.285156 102.925781 748.382812 99.089844 756.390625 98.621094 C 762.183594 94.933594 767.929688 91.765625 773.894531 89.828125 C 784.871094 86.261719 778.777344 82.710938 766.082031 82.582031 C 757.566406 82.492188 748.929688 83.324219 740.382812 86.035156 C 734.964844 87.753906 734.773438 92.046875 740.226562 91.539062 C 745.457031 91.050781 750.089844 91.960938 755.320312 94.503906 C 749.265625 94.328125 743.269531 95.632812 737.679688 97.910156 C 734.148438 103.113281 723.414062 102.132812 718.484375 100.183594 C 723.867188 99.203125 729.351562 98.1875 731.625 96.390625 C 734.222656 94.378906 729.449219 88.445312 720.628906 88.898438 C 715.53125 89.15625 707.421875 90.160156 700.050781 92.460938 C 693.9375 94.367188 690.996094 96.570312 696.480469 97.992188 C 701.28125 99.238281 706.789062 101.726562 708.699219 105.929688 C 703.695312 102.8125 695.273438 100.417969 691.675781 103.167969 C 688.101562 105.90625 682.277344 108.710938 676.160156 111.226562 C 667.222656 114.902344 657.808594 116.851562 653.585938 125.664062 C 654.429688 115.058594 668.875 109.019531 673.945312 107.183594 C 692.195312 100.574219 673.371094 103.214844 668.886719 104.007812 C 658.675781 105.808594 649.484375 109.398438 641.234375 114.457031 C 634.800781 118.402344 629.160156 123.484375 623.578125 128.84375 C 617.128906 135.035156 616.742188 138.148438 628.289062 136.203125 C 631.558594 135.851562 633.835938 131.972656 633.992188 126.246094 C 636.554688 132.121094 636.003906 140.90625 628.894531 141.90625 C 625.21875 142.421875 621.300781 143.019531 617.570312 143.921875 C 613.765625 144.847656 610.140625 145.976562 607.128906 147.167969 C 597.742188 152.4375 589.925781 159.363281 583.796875 167.898438 C 579.996094 173.1875 566.847656 196.363281 578.851562 184.710938 C 581.707031 181.9375 584.492188 179.066406 588.210938 176.550781 C 593.277344 173.125 596.761719 174.957031 597.972656 178.664062 C 600.257812 185.636719 592.988281 188.996094 594.878906 199.191406 C 591.167969 193.835938 592.0625 187.339844 593.136719 182.796875 C 593.535156 181.113281 593.371094 179.992188 591.417969 181.308594 C 586.613281 184.5625 583.140625 188.453125 579.472656 192.5625 C 576.414062 195.992188 573.222656 199.5625 568.972656 203.160156 C 562.988281 209.421875 559.019531 216.859375 556.910156 225.3125 C 555.953125 229.125 555.378906 233.148438 555.164062 237.371094 C 554.550781 249.457031 557.644531 251.195312 562.84375 239.5625 C 564.695312 243.105469 564.15625 248.554688 560.363281 252.222656 C 554.78125 257.613281 552.441406 263.671875 552.640625 271.601562 C 552.953125 284.300781 560.738281 292.25 569.226562 300.324219 C 572.652344 303.636719 587.296875 317.902344 579.15625 329.972656 C 581.613281 320.277344 573.636719 312.410156 565.253906 304.457031 C 558.75 298.289062 556.996094 300.769531 559.761719 310.835938 C 562.324219 320.15625 566.847656 328.0625 572.417969 334.261719 C 577.429688 339.835938 583.5 343.6875 589.777344 346.46875 C 594.640625 348.621094 596.207031 346.59375 594.894531 342.4375 C 593.445312 337.847656 594.164062 332.429688 598.449219 327.339844 C 596.757812 333.761719 599.792969 342.820312 605.214844 346.773438 C 610.523438 350.648438 614.652344 345.78125 612.351562 340.25 C 610.640625 336.125 608.675781 331.902344 607.773438 327.238281 C 604.921875 312.570312 596.683594 306.953125 585.539062 308.265625 C 589.105469 304.871094 592.125 303.246094 599.035156 304.800781 C 605.097656 307.023438 606.109375 306.914062 605.144531 302.828125 C 602.363281 291.050781 596.628906 295.734375 587.054688 293.414062 C 559.65625 286.769531 564.296875 256.046875 574.1875 236.523438 C 577.617188 229.753906 581.710938 222.109375 582.753906 214.488281 C 583.351562 210.152344 580.011719 205.960938 576.308594 209.941406 C 573.652344 212.792969 572.867188 215.96875 572.421875 221.917969 C 570.761719 216.457031 569.980469 211.660156 573.035156 206.960938 C 578.894531 197.941406 589.832031 205.078125 588.4375 215.25 C 587.296875 223.558594 583.050781 231.71875 579.308594 239.105469 C 571.460938 254.597656 565.023438 282.625 588.292969 287.824219 C 596.59375 289.679688 603.183594 290.96875 605.1875 279.066406 C 607.335938 266.277344 609.988281 257.160156 614.65625 245.304688 C 617.253906 238.707031 616.601562 232.492188 618.167969 225.75 C 619.207031 221.261719 622.96875 215.78125 621.449219 212.691406 C 617.023438 203.6875 621.5 191.3125 631.328125 189.070312 C 626.402344 193.140625 625.671875 196.40625 625.398438 199.824219 C 625.097656 203.621094 626.503906 208.191406 631.753906 201.132812 C 638.566406 191.957031 642.078125 193.859375 646.519531 182.398438 C 644.59375 180.53125 643.316406 178.332031 642.710938 175.914062 C 641.386719 170.597656 638.773438 169.804688 635.125 171.769531 C 621.535156 179.105469 609.285156 187.535156 604.390625 203.980469 C 603.34375 207.511719 605.128906 211.660156 606.925781 215.832031 C 608.972656 220.59375 611.03125 225.382812 610.023438 230.59375 C 609.105469 235.347656 605.535156 238.125 601.9375 240.925781 C 599.402344 242.894531 596.851562 244.878906 595.988281 247.261719 C 594.320312 251.835938 594.449219 257.128906 594.984375 262.390625 C 595.558594 268.085938 601.398438 268.046875 600.378906 273.308594 C 596.792969 268.847656 585.457031 270.277344 584.9375 278.351562 C 580.957031 267.140625 589.761719 270.824219 589.257812 262.730469 C 588.890625 256.867188 588.523438 251.007812 590.597656 245.3125 C 592.039062 241.351562 595.238281 238.859375 598.410156 236.390625 C 601.160156 234.253906 603.882812 232.132812 604.386719 229.519531 C 605.0625 226.035156 603.351562 222.058594 601.648438 218.101562 C 599.441406 212.972656 597.242188 207.871094 598.890625 202.34375 C 600.574219 196.683594 605.757812 190.503906 608.550781 183.964844 C 611.015625 178.195312 611.066406 172.039062 613.25 167.171875 C 614.96875 163.339844 614.996094 159.90625 613.261719 159.265625 C 609.953125 158.046875 602.554688 161.757812 597.371094 166.945312 C 606.824219 148.023438 631.097656 149.703125 630.648438 159.683594 Z M 700.574219 263.867188 C 705.265625 263.015625 709.019531 260.292969 711.585938 255.183594 C 712.085938 260.628906 711.101562 265.199219 708.058594 268.574219 C 711.273438 271.726562 713.957031 276.113281 716.339844 281.511719 C 718.890625 287.277344 721.476562 293.117188 725.992188 295.738281 C 732.375 299.441406 746.503906 285.257812 752.238281 292.355469 C 742.890625 288.644531 731.660156 305.660156 723.117188 300.699219 C 716.972656 297.136719 714.011719 290.433594 711.085938 283.824219 C 701 261.015625 685.765625 268.671875 667.628906 279.925781 C 656.621094 286.757812 646.515625 299.859375 655.03125 312.367188 C 662.257812 322.988281 701.644531 330.199219 682.039062 352.476562 C 688.207031 338.527344 676.222656 332.167969 665 326.203125 C 659.050781 323.042969 654.789062 320.609375 651.601562 320.484375 C 646.292969 320.277344 643.21875 323.535156 635.953125 323.246094 C 631.050781 323.058594 626.296875 321.605469 622.109375 319.066406 C 616.261719 315.527344 614.816406 318.148438 615.945312 325.375 C 618.199219 339.847656 623.507812 352.464844 636.398438 360.164062 C 644.003906 364.710938 646.703125 364.835938 643.109375 359.050781 C 640.371094 354.652344 640.359375 349.957031 637.203125 344.679688 C 635.210938 341.34375 630.046875 337.609375 629.808594 333.492188 C 635.480469 340.179688 645.1875 343.734375 652.355469 338.992188 C 650.300781 345.109375 645.226562 344.089844 644.886719 347.667969 C 644.175781 355.265625 649.015625 361.953125 655.554688 365.953125 C 664.511719 371.4375 676.871094 372.683594 684.355469 371.753906 C 697.78125 370.085938 711.03125 360.910156 716.933594 348.523438 C 718.316406 345.628906 719.175781 342.558594 719.371094 339.320312 C 721.707031 340.148438 723.324219 344 722.703125 347.992188 C 722.289062 350.671875 723.367188 352.585938 727.75 351.503906 C 737.933594 349.996094 744.527344 346.53125 742.289062 335.433594 C 740.816406 328.144531 733.882812 323.953125 727.234375 321.84375 C 713.703125 317.554688 695.496094 315.5625 690.851562 309.074219 C 686.265625 302.671875 679.570312 307.695312 676.386719 300.324219 C 682.480469 304.089844 696.445312 300.402344 695.886719 290.175781 C 698.652344 294.183594 699.058594 300.464844 696.871094 303.660156 C 692.695312 309.765625 716.1875 312.753906 728.78125 316.324219 C 737.640625 318.832031 745.992188 324.832031 747.898438 334.3125 C 750.660156 347.972656 743.457031 354.976562 728.578125 357.183594 C 715.957031 358.285156 740.410156 368.324219 749.898438 368.769531 C 756.789062 370.117188 763.773438 370.335938 770.082031 368.59375 C 776.230469 366.886719 781.808594 363.265625 786.089844 356.914062 C 792.328125 347.664062 791.34375 341.507812 784.960938 339.597656 C 774.683594 336.492188 763.59375 336.042969 762.265625 351.328125 C 757.117188 333.953125 775.472656 330.726562 786.621094 334.101562 C 796.902344 337.207031 803.5 338.160156 808.238281 332.105469 C 810.472656 329.246094 813.28125 324.207031 814.046875 318.261719 C 815.949219 303.496094 802.464844 287.617188 800.773438 277.214844 C 799.371094 268.550781 805.515625 259.449219 819.472656 268.648438 C 805.773438 264.792969 805.871094 273.027344 807.324219 278.921875 C 808.859375 285.144531 816.5 295.023438 819.09375 308.441406 C 820.714844 316.820312 820.871094 318 828.347656 318.269531 C 843.066406 318.800781 859.914062 319.074219 868.328125 307.222656 C 871.339844 302.976562 873.335938 298.425781 871.59375 294.796875 C 867.980469 287.257812 865.894531 278.195312 870.039062 270.25 C 869.609375 274.105469 871.558594 288.253906 878.824219 293.171875 C 886.039062 298.058594 896.523438 288.472656 901.980469 279.5 C 905.152344 274.292969 906.496094 268.429688 906.621094 264.589844 C 909.175781 266.609375 909.269531 270.578125 908.320312 274.675781 C 906.570312 282.234375 920.640625 272.546875 923.726562 269.550781 C 932.164062 261.359375 939.210938 249.761719 941.40625 241.394531 C 941.746094 257.925781 929.886719 276.472656 914.488281 282.894531 C 921.195312 285.058594 925.070312 293.296875 921.441406 300.011719 C 920.339844 291.113281 908.1875 281.9375 900.277344 289.816406 C 897.164062 292.917969 893.417969 295.359375 888.832031 297.144531 C 882.953125 299.429688 879.574219 300.253906 877.523438 302.617188 C 875.46875 304.976562 874.742188 308.871094 870.933594 313.132812 C 882.367188 316.699219 890.988281 328.265625 880.742188 339.371094 C 885.191406 328.058594 877.105469 320.035156 865.710938 317.707031 C 854.089844 325.621094 839.28125 324.71875 825.550781 323.863281 C 813.5 323.121094 817.792969 338.316406 804.347656 341.914062 C 800.125 343.042969 796.445312 346.179688 795.535156 349.617188 C 794.824219 352.285156 795.496094 355.371094 800.816406 356.363281 C 814.382812 358.878906 825.570312 349.542969 833.085938 339.195312 C 824.765625 359.691406 810.695312 363.582031 792.5625 363.597656 C 786.09375 363.605469 786.1875 368.824219 778.933594 371.140625 C 776.03125 372.070312 772.566406 374.582031 774.320312 379.234375 C 778.148438 389.355469 770.621094 397.199219 755.695312 391.808594 C 766.945312 392.0625 771.734375 387.402344 768.351562 380.128906 C 765.996094 375.074219 756.5625 375.925781 748.800781 374.402344 C 738.695312 372.480469 728.949219 368.261719 721.324219 364.070312 C 714.496094 360.316406 711.648438 364.632812 714.105469 373.707031 C 716.15625 381.292969 719.449219 387.023438 723.480469 391.394531 C 727.582031 395.847656 739.113281 401.636719 734.585938 395.511719 C 731.15625 390.875 730.472656 383.234375 733.878906 379.835938 C 734.566406 384.027344 736.457031 388.320312 739.234375 392.148438 C 744.863281 399.898438 755.371094 405.554688 764.816406 406.542969 C 770.144531 407.097656 775.664062 406.441406 781.28125 404.726562 L 781.625 404.621094 L 781.933594 404.601562 C 784.160156 404.464844 786.503906 404.007812 788.859375 403.539062 C 793.128906 402.359375 796.855469 400.238281 800.125 397.117188 C 804.59375 392.84375 812.042969 381.832031 805.234375 380.996094 C 801.75 380.570312 792.449219 381.582031 785.519531 385.242188 C 797.582031 369.933594 809.679688 378.203125 825.59375 375.160156 C 829.519531 374.410156 833.417969 373.152344 837.054688 371.414062 C 840.480469 369.769531 843.691406 367.683594 846.480469 365.179688 C 851.664062 360.515625 855.5 354.363281 859.332031 348.214844 C 861.851562 343.128906 865.324219 341.921875 870.199219 342.101562 C 862.757812 344.484375 858.683594 354.699219 869.554688 353.480469 C 877.632812 352.574219 883.617188 350.492188 888.320312 347.628906 C 895.308594 343.382812 899.613281 336.699219 903.664062 326.621094 C 907.929688 316 903.738281 308.644531 891.292969 314.054688 C 895.6875 307.242188 908.714844 304.945312 910.640625 314.484375 C 911.84375 320.421875 922.613281 316.875 929.894531 312.511719 C 937.296875 308.074219 944.664062 301.292969 952.3125 290.949219 C 949.65625 301.789062 940.421875 312.878906 932.835938 317.429688 C 921.839844 324.015625 916.535156 323.003906 912.171875 326.105469 C 908.0625 329.019531 905.328125 333.734375 904.769531 337.753906 C 904.480469 339.855469 904.90625 341.335938 908.339844 341.554688 C 911.363281 341.742188 915.074219 340.949219 919.617188 339.257812 C 930.089844 334.171875 938.855469 327.851562 946.046875 320.589844 C 957.300781 309.230469 969.714844 293.050781 962.863281 276.355469 C 959.890625 269.113281 955.28125 263.210938 949.519531 270.875 C 945.203125 276.613281 941.171875 282.789062 940.0625 290.949219 C 936.960938 282.132812 942.296875 270.839844 947.113281 264.582031 C 950.460938 260.234375 953.726562 255.992188 955.664062 251.234375 C 957.878906 245.796875 959.042969 241.507812 959.371094 237.949219 C 959.679688 234.597656 959.234375 231.863281 958.222656 229.371094 C 956.515625 225.15625 954.019531 223.660156 951.453125 222.117188 C 944.785156 218.109375 943.609375 212.546875 945.65625 205.71875 C 946.769531 215.167969 951.710938 215.980469 953.777344 209.835938 C 955.449219 205.203125 957.125 200.566406 955.652344 196.773438 C 951.824219 186.914062 942.796875 177.90625 933.75 172.691406 C 925.644531 168.019531 916.972656 164.277344 910.984375 164.148438 C 903.144531 163.984375 905.5 170.347656 908.355469 174.992188 C 901.15625 170.867188 896.636719 158.925781 911.097656 159.234375 C 915.113281 159.320312 920.160156 160.285156 925.3125 162.394531 C 938.085938 167.632812 928.824219 149.433594 917.929688 142.703125 C 930.527344 146.355469 937.691406 159.933594 940.65625 170.3125 C 944.597656 173.066406 948.332031 176.125 951.191406 179.621094 C 957.207031 186.992188 957.894531 182.914062 953.945312 172.046875 C 950.832031 163.457031 945.945312 155.152344 941.105469 148.507812 C 935.597656 140.953125 928.859375 134.203125 920.710938 128.21875 C 921.984375 146.832031 894.410156 139.378906 892.914062 154.964844 C 887.96875 138.660156 921.726562 142.855469 913.574219 124.582031 C 908.523438 113.265625 896.113281 104.785156 884.042969 101.03125 C 875.042969 98.238281 881.683594 106.167969 872.632812 108.789062 C 875.410156 104.324219 873.242188 100.980469 870.195312 98.152344 C 863.953125 92.355469 850.667969 89.445312 845.273438 88.667969 C 837.480469 87.546875 829.457031 87.8125 821.253906 89.539062 C 823.523438 96.4375 814.945312 98.289062 809.976562 98.804688 C 805.683594 99.246094 803.570312 99.570312 800.882812 102.71875 C 801.335938 98.429688 801.917969 96.015625 809.609375 94.3125 C 814.71875 93.179688 814.496094 90.964844 812.449219 90.6875 C 803.34375 89.449219 796.328125 89.898438 787.203125 91.878906 C 780.527344 93.324219 773.875 95.65625 767.28125 98.992188 C 774.035156 99.675781 780.933594 101.148438 787.753906 103.722656 C 796.742188 107.117188 802.933594 111.570312 808.722656 108.773438 C 824.878906 100.972656 835.675781 93.988281 854.339844 106.976562 C 856.734375 108.640625 858.160156 101.488281 849.390625 94.816406 C 864.4375 99.105469 861.90625 108.074219 865.113281 114.832031 C 868.25 121.445312 869.589844 119.753906 875.523438 119.101562 C 884.5625 118.101562 896.085938 120.167969 901.582031 128.136719 C 896.601562 124.941406 891.183594 123.445312 886.152344 123.097656 C 870.410156 122.425781 876.46875 128.003906 879.902344 139.765625 C 882.179688 147.542969 879.300781 151.917969 879.929688 156.480469 C 880.355469 159.601562 883.292969 162.570312 887.222656 167.75 C 893.3125 175.78125 895.207031 183.105469 895.207031 193.117188 C 895.136719 199.664062 894.527344 201.625 895.332031 204.085938 C 896.882812 208.785156 901.449219 211.011719 909.773438 220.363281 C 915.132812 226.433594 923.035156 238.433594 918.121094 256.402344 C 917.421875 243.085938 912.988281 232.652344 905.488281 224.15625 C 897.859375 215.515625 887.027344 208.78125 873.703125 203.003906 C 871.191406 201.917969 868.917969 202.3125 868.96875 205.5 C 869.003906 207.554688 870.089844 209.980469 872.398438 211.875 C 879.453125 217.683594 888.558594 228.46875 887.644531 238.507812 C 884.015625 229.148438 876.324219 222.492188 868.757812 216.296875 C 865.046875 213.253906 863.304688 209.15625 863.242188 205.589844 C 863.121094 198.179688 869.648438 195.015625 875.972656 197.75 C 884.511719 201.894531 890.035156 203.410156 889.480469 193.117188 C 889.480469 185.179688 886.222656 169.40625 877.679688 166.652344 C 875.4375 165.925781 873.832031 170.265625 875.730469 176.929688 C 869.792969 171.929688 870.699219 167.476562 872.664062 159.375 C 874.285156 152.691406 875.835938 146.269531 874.402344 141.355469 C 872.9375 136.339844 870.410156 131.5625 867.222656 127.167969 C 863.617188 122.203125 859.195312 117.769531 854.511719 114.054688 C 840.128906 102.664062 829.800781 103.71875 817.320312 110.109375 C 809.304688 114.210938 809.339844 115.339844 817.109375 123.78125 C 819.78125 126.683594 822.386719 129.605469 824.640625 132.800781 C 828.449219 138.210938 833.617188 142.953125 838.804688 136.984375 C 842.402344 132.851562 849.28125 131.71875 854.214844 134.183594 C 848.863281 135.355469 845.238281 137.753906 843.546875 140.21875 C 837.253906 151.542969 849.738281 154.792969 854.78125 166.113281 C 857.4375 172.074219 857.253906 177.71875 854.925781 183.929688 C 855.28125 190.707031 854.757812 197.75 854.289062 204.128906 C 853.679688 212.339844 853.160156 219.390625 854.648438 222.242188 C 859.128906 230.820312 866.3125 237.832031 873.507812 244.855469 C 876.324219 247.605469 897.628906 264.269531 886.441406 278.964844 C 889.914062 265.46875 878.496094 257.730469 869.511719 248.964844 C 859.5625 239.253906 857.996094 237.519531 855.464844 243.585938 C 853.421875 248.492188 848.484375 251.21875 841.757812 251.28125 C 847.402344 247.695312 850.074219 243.878906 850.945312 239.671875 C 851.847656 235.320312 851.386719 230.136719 849.398438 224.539062 C 847.777344 219.984375 847.910156 212.550781 848.5625 203.726562 C 849.765625 187.480469 851.546875 184.601562 834.6875 176.277344 C 828.738281 173.339844 818.769531 166.304688 819.066406 157.148438 C 821.472656 163.355469 829.617188 167.378906 837.226562 171.136719 C 844.285156 174.617188 853.867188 180.609375 849.550781 168.445312 C 847.363281 163.539062 842.589844 158.296875 834.617188 151.949219 C 831.117188 149.164062 827.796875 146.285156 825.339844 142.761719 C 819.160156 133.898438 817.316406 132.925781 815.261719 138.570312 C 814.484375 140.707031 812.523438 142.050781 809.738281 143.519531 C 816.90625 124.765625 802.132812 115.28125 785.730469 109.089844 C 776.535156 105.617188 767.15625 104.300781 758.246094 104.242188 L 758.179688 104.285156 L 757.382812 104.308594 C 749.0625 104.570312 741.65625 108.492188 739.339844 114.625 C 734.863281 126.519531 755.339844 132.972656 750.15625 147.195312 C 749.457031 136.433594 734.5 130.226562 732.246094 120.476562 C 730.867188 114.519531 724.792969 115.59375 715.554688 120.644531 C 710.667969 123.316406 703.394531 128.710938 709.054688 129.261719 C 714.902344 129.832031 719.222656 133.289062 720.941406 137.238281 C 713.183594 134.515625 705.441406 133.746094 699.089844 135.589844 C 690.382812 138.109375 683.570312 144.8125 677.484375 152.722656 C 675.808594 154.902344 674.304688 156.421875 678.808594 157.203125 C 681.339844 157.640625 683.449219 159.101562 684.496094 161.761719 C 677.769531 160.03125 670.972656 160.699219 665.941406 164.265625 C 658.589844 169.476562 654.089844 179.695312 651.511719 187.894531 C 662.28125 181.679688 673.6875 176.933594 686.230469 176.09375 C 683.4375 168.542969 689.234375 160.28125 695.933594 157.003906 C 699.5 155.257812 703.941406 153.910156 708.179688 152.632812 C 713.378906 151.074219 721.90625 149.371094 717.949219 146.734375 C 709.714844 141.253906 698.941406 144.9375 691.386719 150.660156 C 696.269531 142.226562 711.609375 138.648438 720.292969 142.308594 C 722.425781 143.210938 724.953125 145.511719 725.214844 148.015625 C 729.1875 149.058594 733.664062 153.324219 740.296875 151.453125 C 734.433594 156.789062 728.222656 153.222656 722.210938 153.300781 C 719.378906 155.257812 714.742188 156.65625 709.839844 158.136719 C 705.757812 159.371094 701.472656 160.664062 698.445312 162.144531 C 690.652344 165.953125 690.5 171.46875 693.585938 178.078125 C 704.179688 200.789062 668.347656 192.195312 653.734375 206.808594 C 658.390625 194.386719 683.195312 195.359375 688.398438 187.859375 C 691.113281 183.949219 687.878906 182.304688 683.199219 182.488281 C 677.894531 182.695312 670.789062 185.058594 669.566406 185.539062 C 651.234375 192.316406 638.117188 202.511719 629.601562 220.761719 C 617.203125 248.550781 629.507812 230.449219 645.332031 221.265625 C 655.359375 215.445312 666.464844 213.363281 678.167969 216.921875 C 685.519531 216.804688 689.871094 218.484375 695.109375 212.03125 C 697.632812 208.925781 699.761719 204.667969 701.722656 199.398438 C 703.558594 204.375 703.808594 209.058594 699.558594 215.644531 C 697.828125 218.328125 698.375 219.730469 701.691406 219.761719 C 709.832031 219.847656 711.84375 213.207031 716.46875 205.234375 C 725.054688 190.429688 726.632812 193.039062 725.992188 178.160156 C 725.492188 166.46875 741.75 162.855469 753.636719 167.0625 C 747.042969 166.921875 732.117188 167.402344 733.820312 177.597656 C 734.296875 180.445312 736.324219 182.804688 742.714844 181.039062 C 749.335938 179.203125 757.144531 178.058594 764.660156 176.957031 C 775.914062 175.308594 791.910156 175.800781 793.492188 161.5625 C 794.554688 152.023438 788.511719 147.800781 780.847656 143.65625 C 769.382812 137.457031 770.644531 126.535156 759.269531 119.875 C 770.863281 120.242188 775.699219 134.355469 783.566406 138.605469 C 793.402344 143.921875 800.539062 150.136719 799.195312 162.191406 C 798.527344 168.09375 796.152344 170.703125 803.738281 174.273438 C 814.027344 179.117188 829.1875 189.347656 829.601562 203.0625 C 823.675781 191.316406 813.363281 183.21875 801.332031 179.089844 C 792.128906 175.925781 791.75 178.460938 782.140625 179.75 C 777.148438 180.414062 771.457031 181.765625 765.488281 182.636719 C 753.46875 184.398438 740.65625 186.277344 734.578125 190.644531 C 729.847656 194.046875 726.070312 200.152344 722.457031 206.347656 C 739.367188 202.898438 753.976562 218.183594 752.300781 234.800781 C 747.953125 214.578125 723.605469 203.617188 717.171875 215.796875 C 712.949219 223.789062 709.910156 225.078125 712.628906 235.277344 C 714.175781 243.53125 730.429688 257.703125 724.941406 273.015625 C 725.425781 253.988281 709.691406 250.742188 706.996094 236.332031 C 705.835938 230.152344 701.671875 226.726562 696.464844 224.867188 C 693.9375 223.964844 691.167969 223.40625 688.347656 223.070312 L 688.132812 223.125 L 688.117188 223.046875 C 675.132812 221.574219 668.261719 227.1875 660.667969 237.609375 C 657.046875 242.578125 653.371094 247.628906 647.285156 251.488281 C 635.832031 258.75 630.042969 270.570312 628.972656 288.5 C 623.425781 274.089844 633.277344 255.011719 644.210938 246.636719 C 649.105469 242.882812 652.757812 238.75 656.039062 234.242188 C 659.617188 229.332031 663.140625 224.496094 668.773438 221 C 661.546875 220.53125 654.632812 222.496094 648.210938 226.226562 C 637.96875 232.171875 628.910156 242.558594 621.722656 254.820312 L 621.714844 254.9375 L 621.457031 255.46875 C 611.863281 275.035156 603.863281 306.347656 631.496094 316.367188 C 643.125 319.160156 647.722656 313.289062 646.410156 306.480469 C 643.84375 293.183594 654.257812 281.46875 664.597656 275.054688 C 669 272.320312 670.433594 268.121094 671.628906 263.097656 C 672.683594 258.675781 673.140625 253.648438 672.992188 248.21875 C 676.054688 252.003906 677.941406 256.738281 677.222656 264.425781 C 676.964844 267.160156 678.394531 266.878906 683.554688 265.03125 C 690.367188 262.59375 695.925781 262.316406 700.574219 263.867188 Z M 893.058594 391.710938 C 885.953125 391.394531 879.800781 390.117188 875.175781 386.226562 C 879.488281 388.246094 884.179688 389.378906 888.921875 389.652344 C 892.78125 389.875 892.515625 390.050781 889.191406 388.820312 C 886.414062 387.792969 883.65625 386.164062 881.066406 383.894531 C 909.28125 388.796875 924.542969 377.203125 928.667969 353.71875 C 929.9375 346.496094 928.273438 343.011719 925.183594 343.378906 C 920.726562 354.425781 912.691406 363.277344 901.714844 367.597656 C 898.582031 368.824219 896.851562 370.105469 894.105469 372.121094 C 908.257812 370.316406 918.886719 361.226562 925.117188 348.597656 C 921.09375 364.105469 907.582031 372.175781 895.515625 374.03125 C 891.878906 374.59375 890.773438 374.554688 887.628906 376.519531 C 902.265625 377.855469 914.96875 370.753906 923.820312 359.335938 C 916.753906 372.605469 904.445312 378.730469 889.746094 378.519531 C 885.753906 378.464844 884.910156 378.25 881.386719 380.136719 C 893.019531 381.203125 905.253906 380.894531 914.703125 372.964844 C 904.765625 384.652344 889.949219 382.941406 878.050781 381.84375 C 873.363281 384.144531 868.535156 386.097656 863.585938 387.75 C 849.609375 392.417969 870.96875 397.496094 879.691406 397.453125 C 883.660156 397.4375 887.574219 396.800781 890.742188 395.898438 C 883.207031 397.296875 872.46875 397.046875 863.46875 390.695312 C 871.226562 394.320312 880.207031 395.636719 888.667969 394.226562 C 882.449219 394.230469 876.148438 393.128906 869.027344 388.492188 C 876.457031 391.960938 884.992188 393.039062 893.058594 391.710938 Z M 903.042969 364.832031 C 911.9375 360.742188 918.542969 353.332031 922.527344 344.441406 C 921.066406 345.371094 919.449219 346.898438 917.761719 349.03125 C 913.09375 354.929688 908.1875 360.183594 903.042969 364.832031 Z M 802.988281 84.277344 C 807.328125 84.1875 811.667969 84.402344 815.992188 84.886719 C 836.234375 79.550781 856.710938 82.683594 874.699219 93.289062 C 893.226562 95.132812 908.394531 106.375 919.734375 120.550781 C 940.015625 134.046875 953.925781 153.195312 961.105469 176.410156 C 975.757812 190.890625 980.925781 209.664062 979.871094 229.824219 C 987.636719 250.402344 986.882812 279.726562 969.644531 295.675781 C 962.371094 312.414062 950.5 326.589844 935.410156 336.78125 C 935.929688 357.175781 931.792969 380.679688 910.375 388.324219 C 901.660156 399.234375 891 403.246094 879.667969 403.179688 C 869.550781 403.117188 859.007812 399.761719 848.902344 395.199219 C 841.863281 399.289062 834.746094 402.511719 827.828125 404.75 C 817.765625 408.015625 808.109375 409.210938 799.753906 408.011719 C 796.617188 407.855469 793.34375 408.503906 790.097656 409.148438 L 790.066406 409.152344 C 788.117188 409.667969 786.085938 410.019531 783.953125 410.214844 L 783.949219 410.183594 C 783.503906 410.234375 783.058594 410.273438 782.605469 410.308594 C 776.375 412.167969 770.214844 412.871094 764.234375 412.246094 C 758.578125 411.652344 753.101562 409.886719 747.894531 406.816406 C 736.40625 406.453125 726.65625 402.898438 719.371094 395.367188 C 716.0625 391.949219 713.292969 387.734375 711.125 382.648438 C 695.675781 388.84375 680.628906 390.695312 668.023438 388.324219 C 655.09375 385.894531 644.722656 379.058594 638.996094 367.957031 C 631.214844 364.523438 624.84375 359.46875 619.886719 352.914062 C 615.640625 355.421875 611.089844 355.785156 606.5625 354.703125 C 591.855469 355.726562 577.894531 348.933594 568.148438 338.097656 C 555.953125 324.535156 550.828125 306.058594 551.261719 288.117188 L 551.148438 287.910156 L 551.15625 287.90625 C 545.839844 277.472656 545.589844 265.914062 550.386719 255.242188 C 547.515625 235.46875 550.238281 214.863281 564.332031 199.730469 C 569.492188 174.488281 583.488281 152.964844 606.65625 140.898438 C 623.335938 116.027344 647.671875 99.089844 678.082031 97.148438 C 693.222656 87.527344 710.664062 81.558594 728.777344 84.042969 C 753.007812 74.066406 778.714844 75.117188 802.988281 84.277344 Z M 701.335938 372.261719 C 696.332031 375.183594 690.800781 376.742188 685.050781 377.457031 C 674.429688 378.777344 663.59375 376.800781 655.507812 372.503906 C 652.847656 372.136719 650.296875 371.632812 647.855469 371.003906 C 652.976562 377.128906 660.339844 381.046875 669.078125 382.6875 C 678.929688 384.109375 695.332031 383.90625 703.492188 375.953125 C 706.691406 372.832031 706.839844 369.050781 701.335938 372.261719 Z M 826.082031 399.296875 C 841.234375 394.382812 861.359375 386.449219 861.769531 367.71875 C 863.628906 368.746094 865.523438 371.058594 865.304688 373.839844 C 864.804688 380.171875 865.667969 381.792969 874.484375 377.246094 C 879.328125 374.746094 884.152344 372.128906 888.726562 368.929688 C 893.863281 365.417969 898.785156 361.34375 903.492188 356.621094 C 907.253906 352.847656 909.066406 346.871094 905.917969 346.695312 C 900.171875 346.386719 897.320312 348.914062 891.425781 352.292969 C 883.707031 356.714844 873.480469 359.417969 858.296875 360.292969 C 855.953125 363.578125 853.378906 366.691406 850.320312 369.445312 C 847.140625 372.304688 843.460938 374.6875 839.523438 376.574219 C 835.410156 378.542969 831.027344 379.902344 826.671875 380.792969 C 821.210938 381.914062 817.503906 379.484375 813.746094 387.554688 C 811.914062 391.484375 809.894531 394.898438 807.472656 397.679688 C 801.605469 404.402344 817.363281 402.1875 826.082031 399.296875 Z M 978.148438 265.28125 C 979.867188 254.53125 980.726562 228.375 964.011719 228.46875 C 965.015625 231.425781 965.425781 234.648438 965.074219 238.464844 C 964.695312 242.621094 963.410156 247.449219 960.984375 253.390625 C 958.4375 258.964844 958.632812 261.660156 962.007812 264.960938 C 964.835938 267.726562 967.050781 270.683594 968.164062 274.179688 C 970.996094 283.09375 975.644531 280.933594 978.148438 265.28125 Z M 974.269531 226 C 974.503906 212.066406 971.425781 198.539062 962.984375 187.25 C 963.457031 190.984375 963.246094 194.660156 961.839844 197.992188 C 962.464844 202.632812 960.816406 207.199219 959.164062 211.765625 C 957.785156 215.601562 957.554688 218.875 961.320312 223.050781 C 965.664062 222.035156 970.621094 223.589844 974.269531 226 Z M 756.597656 261.785156 C 763.882812 264.222656 769.9375 268.863281 772.261719 264.3125 C 775.355469 257.921875 778.332031 252.726562 785.074219 249.757812 C 786 238.050781 779.652344 230.945312 771.734375 223.308594 C 778.800781 225.207031 786.40625 231.757812 788.578125 238.988281 C 790.496094 245.378906 791.679688 247.5 800.078125 245.96875 C 806.992188 245.355469 810.960938 246.679688 812.875 241.945312 C 814.535156 237.492188 816.203125 233.039062 816.316406 228.597656 C 816.816406 208.808594 780.695312 210.746094 768.921875 195.75 C 784.933594 207.507812 822.769531 200.234375 822.039062 228.734375 C 821.917969 233.460938 820.546875 237.824219 818.925781 242.105469 C 817.582031 245.65625 817.046875 247.148438 822.125 250.511719 C 832.621094 257.453125 842.617188 272.335938 846.414062 283.839844 C 849.566406 293.386719 856.535156 286.628906 857.214844 295.773438 C 853.460938 291.929688 838.351562 296.320312 837.355469 301.59375 C 834.257812 290.410156 844.539062 296.488281 840.957031 285.632812 C 837.085938 273.90625 825.453125 257.183594 814.90625 253.132812 C 810.660156 251.496094 805.859375 251.035156 801.039062 251.460938 C 789.160156 252.507812 782.578125 256.152344 777.429688 266.804688 C 773.480469 274.96875 776.003906 275.367188 775.628906 284 C 775.328125 290.890625 770.667969 306.925781 756.566406 311.152344 C 765.097656 305.347656 769.46875 293.726562 769.902344 283.753906 C 770.054688 280.253906 769.523438 276.933594 767.6875 274.402344 C 764.945312 270.617188 759.882812 268.929688 754.773438 267.21875 C 739.769531 262.199219 739.597656 245.949219 728.691406 242.347656 C 741.074219 241.21875 746.746094 258.492188 756.597656 261.785156 Z M 929.023438 242.003906 C 932.445312 232.003906 930.730469 223.355469 925.703125 213.34375 C 921.710938 205.390625 915.054688 198.871094 905.945312 197.675781 C 908.792969 195.269531 913.277344 194.726562 917.296875 196.167969 C 922.589844 198.0625 921.414062 195.03125 922.074219 190.25 C 922.953125 183.886719 925.117188 178.847656 931.886719 179.722656 C 922.566406 184.066406 927.839844 203.992188 930.820312 210.78125 C 935.617188 221.695312 938.328125 232.351562 929.023438 242.003906 Z M 929.023438 242.003906 "/>
</g>
<g clip-path="url(#clip2)" clip-rule="nonzero">
<g clip-path="url(#clip3)" clip-rule="nonzero">
<g clip-path="url(#clip4)" clip-rule="nonzero">
<g clip-path="url(#clip5)" clip-rule="nonzero">
<path style=" stroke:none;fill-rule:nonzero;fill:rgb(0%,0%,0%);fill-opacity:1;" d="M 333.632812 296.363281 C 335.9375 298.667969 339.105469 300.089844 342.597656 300.085938 L 386.945312 300.144531 L 386.976562 325.480469 C 386.972656 328.867188 389.921875 331.820312 393.316406 331.824219 L 396.484375 331.828125 C 404.132812 331.835938 410.519531 326.394531 411.980469 319.1875 L 466.15625 319.25 C 481.878906 319.257812 494.652344 306.484375 494.636719 290.769531 L 494.625 283.121094 L 497.792969 283.125 C 500.332031 283.128906 502.71875 282.144531 504.511719 280.351562 C 506.300781 278.5625 507.289062 276.171875 507.285156 273.636719 L 507.28125 270.46875 L 542.121094 270.511719 C 543.878906 270.503906 545.285156 269.097656 545.292969 267.339844 C 545.289062 265.589844 543.878906 264.179688 542.128906 264.175781 L 507.28125 264.125 L 507.265625 251.457031 L 548.441406 251.523438 C 550.199219 251.515625 551.605469 250.109375 551.613281 248.351562 C 551.601562 247.484375 551.242188 246.6875 550.664062 246.109375 C 550.09375 245.539062 549.300781 245.179688 548.441406 245.179688 L 507.25 245.132812 L 507.246094 241.949219 C 507.246094 239.425781 506.261719 237.027344 504.457031 235.226562 C 502.660156 233.429688 500.261719 232.445312 497.742188 232.445312 L 494.558594 232.441406 L 494.558594 224.785156 C 494.550781 216.929688 491.347656 209.8125 486.179688 204.644531 C 481.011719 199.476562 473.886719 196.265625 466.03125 196.253906 L 411.855469 196.191406 C 411.238281 193.164062 409.757812 190.390625 407.523438 188.15625 C 404.527344 185.160156 400.554688 183.511719 396.320312 183.503906 L 393.160156 183.492188 C 391.464844 183.492188 389.871094 184.152344 388.675781 185.351562 C 387.488281 186.539062 386.824219 188.132812 386.835938 189.820312 L 386.863281 215.15625 L 342.515625 215.113281 C 339.121094 215.109375 335.9375 216.417969 333.542969 218.8125 C 331.15625 221.199219 329.839844 224.390625 329.84375 227.765625 C 329.859375 234.757812 335.554688 240.453125 342.535156 240.460938 L 386.886719 240.503906 L 386.917969 274.808594 L 342.566406 274.746094 C 335.578125 274.746094 329.90625 280.417969 329.914062 287.402344 C 329.917969 290.902344 331.347656 294.058594 333.632812 296.363281 Z M 338.117188 291.898438 C 336.96875 290.75 336.25 289.15625 336.257812 287.417969 C 336.253906 283.917969 339.085938 281.085938 342.582031 281.089844 L 386.925781 281.140625 L 386.9375 293.8125 L 342.597656 293.757812 C 340.847656 293.757812 339.265625 293.046875 338.117188 291.898438 Z M 393.308594 325.488281 L 393.160156 189.835938 L 396.328125 189.839844 C 401.402344 189.84375 405.824219 194.269531 405.839844 199.351562 L 405.898438 257.683594 L 405.976562 316.011719 C 405.972656 321.253906 401.726562 325.5 396.484375 325.503906 Z M 412.316406 312.84375 L 412.242188 257.679688 L 412.175781 202.527344 L 466.019531 202.589844 C 478.25 202.605469 488.210938 212.5625 488.222656 224.792969 L 488.300781 290.761719 C 488.316406 302.992188 478.386719 312.921875 466.15625 312.90625 Z M 338.039062 232.257812 C 336.898438 231.101562 336.179688 229.523438 336.1875 227.785156 C 336.183594 226.085938 336.832031 224.496094 338.027344 223.296875 C 339.226562 222.101562 340.824219 221.445312 342.523438 221.449219 L 386.84375 221.5 L 386.867188 234.175781 L 342.527344 234.125 C 340.777344 234.125 339.195312 233.414062 338.039062 232.257812 Z M 420.972656 307.445312 C 421.539062 308.015625 422.328125 308.382812 423.203125 308.386719 L 429.546875 308.382812 C 431.296875 308.386719 432.710938 306.96875 432.699219 305.230469 C 432.699219 304.355469 432.347656 303.566406 431.769531 302.988281 C 431.191406 302.410156 430.40625 302.058594 429.53125 302.058594 L 423.203125 302.042969 C 421.445312 302.050781 420.03125 303.464844 420.03125 305.214844 C 420.035156 306.089844 420.402344 306.878906 420.972656 307.445312 Z M 420.953125 291.609375 C 421.523438 292.179688 422.308594 292.546875 423.191406 292.539062 L 429.519531 292.558594 C 431.277344 292.550781 432.683594 291.144531 432.691406 289.382812 C 432.679688 288.519531 432.332031 287.730469 431.753906 287.152344 C 431.175781 286.574219 430.386719 286.222656 429.519531 286.214844 L 423.175781 286.214844 C 421.425781 286.214844 420.019531 287.621094 420.023438 289.371094 C 420.015625 290.253906 420.382812 291.042969 420.953125 291.609375 Z M 420.925781 275.785156 C 421.503906 276.34375 422.292969 276.695312 423.164062 276.695312 L 429.5 276.722656 C 431.257812 276.714844 432.675781 275.296875 432.671875 273.550781 C 432.671875 272.675781 432.3125 271.878906 431.734375 271.300781 C 431.164062 270.730469 430.367188 270.371094 429.492188 270.371094 L 423.167969 270.371094 C 421.410156 270.359375 419.992188 271.777344 420.003906 273.535156 C 419.996094 274.417969 420.347656 275.207031 420.925781 275.785156 Z M 420.914062 259.9375 C 421.484375 260.507812 422.273438 260.859375 423.15625 260.871094 L 429.480469 260.867188 C 431.242188 260.878906 432.65625 259.464844 432.644531 257.703125 C 432.652344 256.839844 432.292969 256.042969 431.714844 255.464844 C 431.144531 254.894531 430.347656 254.535156 429.484375 254.542969 L 423.140625 254.527344 C 421.390625 254.523438 419.972656 255.941406 419.976562 257.691406 C 419.984375 258.574219 420.335938 259.359375 420.914062 259.9375 Z M 447.882812 285.335938 C 449.625 287.078125 452 288.191406 454.535156 288.195312 C 457.082031 288.1875 459.460938 287.210938 461.253906 285.417969 C 463.050781 283.621094 464.039062 281.230469 464.035156 278.695312 C 464.03125 276.15625 463.03125 273.777344 461.234375 271.980469 C 459.441406 270.1875 457.058594 269.183594 454.523438 269.183594 C 451.984375 269.179688 449.597656 270.164062 447.796875 271.964844 C 446.007812 273.757812 445.019531 276.144531 445.023438 278.683594 C 445.027344 281.21875 446.132812 283.582031 447.882812 285.335938 Z M 452.289062 280.929688 C 451.683594 280.324219 451.359375 279.527344 451.367188 278.679688 C 451.367188 277.839844 451.6875 277.042969 452.28125 276.449219 C 452.886719 275.847656 453.679688 275.523438 454.519531 275.527344 C 456.21875 275.527344 457.699219 276.992188 457.691406 278.695312 C 457.691406 279.535156 457.371094 280.332031 456.765625 280.933594 C 456.171875 281.53125 455.378906 281.851562 454.539062 281.851562 C 453.6875 281.859375 452.882812 281.527344 452.289062 280.929688 Z M 420.886719 244.09375 C 421.464844 244.671875 422.253906 245.023438 423.136719 245.035156 L 429.464844 245.03125 C 431.222656 245.042969 432.636719 243.628906 432.625 241.867188 C 432.632812 241.003906 432.273438 240.207031 431.707031 239.636719 C 431.128906 239.058594 430.332031 238.699219 429.464844 238.707031 L 423.121094 238.691406 C 421.371094 238.6875 419.957031 240.105469 419.957031 241.855469 C 419.96875 242.738281 420.320312 243.523438 420.886719 244.09375 Z M 420.871094 228.257812 C 421.449219 228.835938 422.234375 229.1875 423.109375 229.1875 L 429.445312 229.195312 C 431.195312 229.199219 432.609375 227.78125 432.609375 226.03125 C 432.605469 225.15625 432.257812 224.371094 431.679688 223.792969 C 431.101562 223.214844 430.3125 222.863281 429.4375 222.863281 L 423.113281 222.863281 C 421.351562 222.851562 419.9375 224.269531 419.949219 226.027344 C 419.949219 226.902344 420.300781 227.691406 420.871094 228.257812 Z M 447.902344 240.46875 C 449.636719 242.222656 452.015625 243.328125 454.554688 243.328125 C 457.089844 243.332031 459.476562 242.347656 461.269531 240.554688 C 463.0625 238.761719 464.046875 236.375 464.042969 233.839844 C 464.039062 231.300781 463.050781 228.910156 461.253906 227.117188 C 459.457031 225.320312 457.066406 224.328125 454.53125 224.328125 C 451.992188 224.324219 449.605469 225.308594 447.816406 227.101562 C 446.023438 228.890625 445.039062 231.28125 445.039062 233.816406 C 445.042969 236.355469 446.148438 238.71875 447.902344 240.46875 Z M 420.859375 212.433594 C 421.429688 213 422.21875 213.351562 423.089844 213.351562 L 429.445312 213.359375 C 431.191406 213.363281 432.601562 211.957031 432.597656 210.207031 C 432.597656 209.332031 432.246094 208.527344 431.667969 207.949219 C 431.097656 207.378906 430.292969 207.027344 429.417969 207.027344 L 423.101562 207.019531 C 421.335938 207.015625 419.925781 208.421875 419.929688 210.191406 C 419.929688 211.066406 420.28125 211.855469 420.859375 212.433594 Z M 452.304688 236.066406 C 451.699219 235.460938 451.375 234.664062 451.375 233.824219 C 451.375 232.984375 451.707031 232.179688 452.300781 231.585938 C 452.894531 230.992188 453.699219 230.660156 454.539062 230.660156 C 456.234375 230.664062 457.707031 232.132812 457.710938 233.832031 C 457.710938 234.671875 457.378906 235.476562 456.785156 236.070312 C 456.191406 236.664062 455.386719 236.996094 454.546875 236.996094 C 453.707031 236.992188 452.902344 236.660156 452.304688 236.066406 Z M 494.621094 276.789062 L 494.574219 238.78125 L 497.734375 238.777344 C 499.429688 238.78125 500.910156 240.261719 500.914062 241.957031 L 500.933594 273.628906 C 500.941406 274.476562 500.621094 275.273438 500.015625 275.875 C 499.421875 276.46875 498.625 276.792969 497.777344 276.785156 Z M 494.621094 276.789062 "/>
</g>
</g>
</g>
</g>
<g clip-path="url(#clip6)" clip-rule="nonzero">
<path style=" stroke:none;fill-rule:nonzero;fill:rgb(100%,74.119568%,34.899902%);fill-opacity:1;" d="M 161.8125 275.917969 L 237.125 275.917969 C 238.109375 275.917969 239.03125 276.40625 239.582031 277.222656 C 240.136719 278.039062 240.25 279.078125 239.886719 279.992188 L 195.945312 390.484375 L 304.964844 244.394531 L 221.792969 244.394531 C 220.796875 244.394531 219.871094 243.894531 219.320312 243.066406 C 218.769531 242.238281 218.671875 241.1875 219.054688 240.269531 L 266.453125 127.351562 Z M 184.875 413.257812 C 184.378906 413.257812 183.882812 413.136719 183.425781 412.878906 C 182.125 412.152344 181.566406 410.570312 182.117188 409.1875 L 232.746094 281.867188 L 156.085938 281.867188 C 154.976562 281.867188 153.960938 281.246094 153.449219 280.261719 C 152.9375 279.273438 153.019531 278.085938 153.65625 277.179688 L 277.359375 101.546875 C 278.234375 100.308594 279.898438 99.925781 281.226562 100.660156 C 282.554688 101.398438 283.113281 103.015625 282.523438 104.414062 L 226.261719 238.445312 L 310.890625 238.445312 C 312.015625 238.445312 313.042969 239.082031 313.546875 240.089844 C 314.050781 241.09375 313.941406 242.300781 313.269531 243.199219 L 187.253906 412.066406 C 186.675781 412.839844 185.785156 413.257812 184.875 413.257812 "/>
</g>
</g>
</svg>
