<svg width="600" height="462" xmlns="http://www.w3.org/2000/svg">
 <g>
  <title>Layer 1</title>
  <g id="svg_8" transform="rotate(-163.7363739013672 297.5,240.5) " stroke="null">
   <path fill="#ffaaff" d="m400.74871,225.51893c-1.13721,-23.86492 -20.63836,-41.75671 -42.39598,-41.75671l-3.3614,0c-18.94869,0 -37.39872,-6.40259 -53.00036,-18.21882c-15.06352,-11.4104 -34.45346,-16.39851 -54.96267,-11.30796c-6.46092,1.59966 -52.8748,16.22515 -52.8461,73.65541c0.01435,27.9547 13.87609,52.32394 34.43552,65.40887l0,29.15247c0,3.48301 2.56858,6.30409 5.73985,6.30409l5.73985,0c3.17127,0 5.73985,-2.82108 5.73985,-6.30409l0,-21.37874c5.51026,1.56026 11.26446,2.46648 17.21956,2.46648c1.95155,0 3.83135,-0.28762 5.73985,-0.46493l0,19.3772c0,3.48301 2.56858,6.30409 5.73985,6.30409l5.73985,0c3.17127,0 5.73985,-2.82108 5.73985,-6.30409l0,-23.41575c5.10847,-1.99367 10.00169,-4.48772 14.4716,-7.68705c16.4088,-11.74531 34.98799,-19.32991 54.57523,-19.32991c9.14071,0 5.74344,-0.12214 8.26897,-0.30732l26.6939,53.75812c1.026,2.06065 2.97755,3.28601 5.04031,3.28601c0.46995,0 0.94708,-0.06304 1.41703,-0.197c2.54347,-0.70921 4.32283,-3.22691 4.32283,-6.10709c0,0 0.05022,-94.6559 -0.0574,-96.93326l0.00001,-0.00002zm-40.12157,11.82805c-4.75331,0 -8.60978,-4.23556 -8.60978,-9.45613c0,-5.22451 3.85646,-9.45613 8.60978,-9.45613s8.60978,4.23162 8.60978,9.45613c0,5.22057 -3.85646,9.45613 -8.60978,9.45613zm28.69926,60.38136l-14.29941,-28.79393c5.42416,-2.29705 10.30662,-5.75248 14.29941,-10.23627l0,39.03019l0,0.00001z" id="svg_7" stroke="null"/>
  </g>
  <g id="svg_18">
   <path fill="#0000bf" d="m198.46875,389.28906l0,-39.70313c0,-1.57158 -1.26436,-2.83594 -2.83594,-2.83594l-38.75781,0c-6.2627,0 -11.34375,5.08105 -11.34375,11.34375l0,37.8125c0,6.2627 5.08105,11.34375 11.34375,11.34375l38.75781,0c1.57158,0 2.83594,-1.26436 2.83594,-2.83594l0,-1.89063c0,-0.88623 -0.41357,-1.68975 -1.05166,-2.20967c-0.49629,-1.81973 -0.49629,-7.00713 0,-8.82686c0.63809,-0.50811 1.05166,-1.31162 1.05166,-2.19785l0,0.00002zm-37.8125,-26.70508c0,-0.38994 0.31904,-0.70898 0.70898,-0.70898l25.05078,0c0.38994,0 0.70898,0.31904 0.70898,0.70898l0,2.36328c0,0.38994 -0.31904,0.70898 -0.70898,0.70898l-25.05078,0c-0.38994,0 -0.70898,-0.31904 -0.70898,-0.70898l0,-2.36328zm0,7.5625c0,-0.38994 0.31904,-0.70898 0.70898,-0.70898l25.05078,0c0.38994,0 0.70898,0.31904 0.70898,0.70898l0,2.36328c0,0.38994 -0.31904,0.70898 -0.70898,0.70898l-25.05078,0c-0.38994,0 -0.70898,-0.31904 -0.70898,-0.70898l0,-2.36328zm29.94277,29.54102l-33.72402,0c-2.0915,0 -3.78125,-1.68975 -3.78125,-3.78125c0,-2.07969 1.70156,-3.78125 3.78125,-3.78125l33.72402,0c-0.22451,2.02061 -0.22451,5.54189 0,7.5625z" id="svg_17"/>
  </g>
  <g id="svg_22">
   <path fill="#bf0000" d="m475.46875,207.28906l0,-39.70312c0,-1.57158 -1.26436,-2.83594 -2.83594,-2.83594l-38.75781,0c-6.2627,0 -11.34375,5.08105 -11.34375,11.34375l0,37.8125c0,6.2627 5.08105,11.34375 11.34375,11.34375l38.75781,0c1.57158,0 2.83594,-1.26436 2.83594,-2.83594l0,-1.89062c0,-0.88623 -0.41357,-1.68975 -1.05166,-2.20967c-0.49629,-1.81973 -0.49629,-7.00713 0,-8.82686c0.63809,-0.5081 1.05166,-1.31162 1.05166,-2.19785zm-37.8125,-26.70508c0,-0.38994 0.31904,-0.70898 0.70898,-0.70898l25.05079,0c0.38994,0 0.70898,0.31904 0.70898,0.70898l0,2.36329c0,0.38994 -0.31904,0.70898 -0.70898,0.70898l-25.05079,0c-0.38994,0 -0.70898,-0.31904 -0.70898,-0.70898l0,-2.36329zm0,7.5625c0,-0.38994 0.31904,-0.70898 0.70898,-0.70898l25.05079,0c0.38994,0 0.70898,0.31904 0.70898,0.70898l0,2.36329c0,0.38994 -0.31904,0.70898 -0.70898,0.70898l-25.05079,0c-0.38994,0 -0.70898,-0.31904 -0.70898,-0.70898l0,-2.36329zm29.94277,29.54102l-33.72402,0c-2.0915,0 -3.78125,-1.68975 -3.78125,-3.78125c0,-2.07969 1.70156,-3.78125 3.78125,-3.78125l33.72402,0c-0.22451,2.02061 -0.22451,5.54189 0,7.5625z" id="svg_21"/>
  </g>
  <g id="svg_24">
   <path fill="#ffaa56" d="m403.46875,51.28906l0,-39.70312c0,-1.57158 -1.26436,-2.83594 -2.83594,-2.83594l-38.75781,0c-6.2627,0 -11.34375,5.08105 -11.34375,11.34375l0,37.8125c0,6.2627 5.08105,11.34375 11.34375,11.34375l38.75781,0c1.57158,0 2.83594,-1.26436 2.83594,-2.83594l0,-1.89062c0,-0.88623 -0.41357,-1.68975 -1.05166,-2.20967c-0.49629,-1.81973 -0.49629,-7.00713 0,-8.82686c0.63809,-0.5081 1.05166,-1.31162 1.05166,-2.19785zm-37.8125,-26.70508c0,-0.38994 0.31904,-0.70898 0.70898,-0.70898l25.05079,0c0.38994,0 0.70898,0.31904 0.70898,0.70898l0,2.36329c0,0.38994 -0.31904,0.70898 -0.70898,0.70898l-25.05079,0c-0.38994,0 -0.70898,-0.31904 -0.70898,-0.70898l0,-2.36329zm0,7.5625c0,-0.38994 0.31904,-0.70898 0.70898,-0.70898l25.05079,0c0.38994,0 0.70898,0.31904 0.70898,0.70898l0,2.36329c0,0.38994 -0.31904,0.70898 -0.70898,0.70898l-25.05079,0c-0.38994,0 -0.70898,-0.31904 -0.70898,-0.70898l0,-2.36329zm29.94277,29.54102l-33.72402,0c-2.0915,0 -3.78125,-1.68975 -3.78125,-3.78125c0,-2.07969 1.70156,-3.78125 3.78125,-3.78125l33.72402,0c-0.22451,2.02061 -0.22451,5.54189 0,7.5625z" id="svg_23"/>
  </g>
  <g id="svg_20">
   <path fill="#007f00" d="m173.46875,118.28906l0,-39.70312c0,-1.57158 -1.26436,-2.83594 -2.83594,-2.83594l-38.75781,0c-6.2627,0 -11.34375,5.08105 -11.34375,11.34375l0,37.8125c0,6.2627 5.08105,11.34375 11.34375,11.34375l38.75781,0c1.57158,0 2.83594,-1.26436 2.83594,-2.83594l0,-1.89062c0,-0.88623 -0.41357,-1.68975 -1.05166,-2.20967c-0.49629,-1.81973 -0.49629,-7.00713 0,-8.82686c0.63809,-0.5081 1.05166,-1.31162 1.05166,-2.19785zm-37.8125,-26.70508c0,-0.38994 0.31904,-0.70898 0.70898,-0.70898l25.05079,0c0.38994,0 0.70898,0.31904 0.70898,0.70898l0,2.36329c0,0.38994 -0.31904,0.70898 -0.70898,0.70898l-25.05079,0c-0.38994,0 -0.70898,-0.31904 -0.70898,-0.70898l0,-2.36329zm0,7.5625c0,-0.38994 0.31904,-0.70898 0.70898,-0.70898l25.05079,0c0.38994,0 0.70898,0.31904 0.70898,0.70898l0,2.36329c0,0.38994 -0.31904,0.70898 -0.70898,0.70898l-25.05079,0c-0.38994,0 -0.70898,-0.31904 -0.70898,-0.70898l0,-2.36329zm29.94277,29.54102l-33.72402,0c-2.0915,0 -3.78125,-1.68975 -3.78125,-3.78125c0,-2.07969 1.70156,-3.78125 3.78125,-3.78125l33.72402,0c-0.22451,2.02061 -0.22451,5.54189 0,7.5625z" id="svg_19"/>
  </g>
  <g id="svg_33">
   <path fill="currentColor" d="m413.46875,431.28906l0,-39.70312c0,-1.57158 -1.26436,-2.83594 -2.83594,-2.83594l-38.75781,0c-6.2627,0 -11.34375,5.08105 -11.34375,11.34375l0,37.8125c0,6.2627 5.08105,11.34375 11.34375,11.34375l38.75781,0c1.57158,0 2.83594,-1.26436 2.83594,-2.83594l0,-1.89062c0,-0.88623 -0.41357,-1.68975 -1.05166,-2.20967c-0.49629,-1.81973 -0.49629,-7.00713 0,-8.82686c0.63809,-0.5081 1.05166,-1.31162 1.05166,-2.19785zm-37.8125,-26.70508c0,-0.38994 0.31904,-0.70898 0.70898,-0.70898l25.05079,0c0.38994,0 0.70898,0.31904 0.70898,0.70898l0,2.36329c0,0.38994 -0.31904,0.70898 -0.70898,0.70898l-25.05079,0c-0.38994,0 -0.70898,-0.31904 -0.70898,-0.70898l0,-2.36329zm0,7.5625c0,-0.38994 0.31904,-0.70898 0.70898,-0.70898l25.05079,0c0.38994,0 0.70898,0.31904 0.70898,0.70898l0,2.36329c0,0.38994 -0.31904,0.70898 -0.70898,0.70898l-25.05079,0c-0.38994,0 -0.70898,-0.31904 -0.70898,-0.70898l0,-2.36329zm29.94277,29.54102l-33.72402,0c-2.0915,0 -3.78125,-1.68975 -3.78125,-3.78125c0,-2.07969 1.70156,-3.78125 3.78125,-3.78125l33.72402,0c-0.22451,2.02061 -0.22451,5.54189 0,7.5625z" id="svg_32"/>
  </g>
 </g>

</svg>