<svg width="600" height="462" xmlns="http://www.w3.org/2000/svg">

 <g>
  <title>Layer 1</title>
  <g transform="rotate(-0.1662401705980301 354,224.50000000000745) " stroke="null" id="svg_13">
   <path stroke="null" id="svg_12" d="m333.99571,226.18446c1.92438,1.86334 5.04341,1.86334 6.96779,0l3.48235,-3.3719c1.92438,-1.86334 1.92438,-4.88345 0,-6.74679l-10.9982,-10.64639l10.99512,-10.64937c1.92438,-1.86334 1.92438,-4.88345 0,-6.74679l-3.48235,-3.3719c-1.92438,-1.86334 -5.04341,-1.86334 -6.96779,0l-17.96291,17.39318c-1.92438,1.86334 -1.92438,4.88345 0,6.74679l17.96599,17.39318zm29.56152,-3.36892l3.48235,3.3719c1.92438,1.86334 5.04341,1.86334 6.96779,0l17.96291,-17.39318c1.92438,-1.86334 1.92438,-4.88345 0,-6.74679l-17.96291,-17.39318c-1.92438,-1.86334 -5.04341,-1.86334 -6.96779,0l-3.48235,3.3719c-1.92438,1.86334 -1.92438,4.88345 0,6.74679l10.99512,10.64639l-10.99512,10.64937c-1.92438,1.86334 -1.92438,4.88345 0,6.74679zm84.0445,49.38601l-74.65354,0c-0.22785,5.90605 -4.52922,9.54031 -10.08066,9.54031l-18.72035,0c-5.75466,0 -10.16687,-5.20841 -10.0899,-9.54031l-73.65902,0c-2.70952,0 -4.92641,2.14657 -4.92641,4.77016l0,4.77016c0,10.49434 8.86753,19.08062 19.70563,19.08062l157.64502,0c10.83809,0 19.70563,-8.58628 19.70563,-19.08062l0,-4.77016c0,-2.62359 -2.21688,-4.77016 -4.92641,-4.77016zm-14.77922,-109.71357c0,-7.87076 -6.65065,-14.31047 -14.77922,-14.31047l-128.08658,0c-8.12857,0 -14.77922,6.43971 -14.77922,14.31047l0,100.17326l157.64502,0l0,-100.17326zm-19.70563,81.09264l-118.23376,0l0,-76.32249l118.23376,0l0,76.32249z" fill="currentColor"/>
  </g>
  <g stroke="null" transform="rotate(-13.874192237854004 202.50000000000026,205.49999999999991) " id="svg_8">
   <path stroke="null" id="svg_7" d="m305.74871,190.51893c-1.13721,-23.86492 -20.63836,-41.75671 -42.39598,-41.75671l-3.3614,0c-18.94869,0 -37.39872,-6.40259 -53.00036,-18.21882c-15.06352,-11.4104 -34.45346,-16.39851 -54.96267,-11.30796c-6.46092,1.59966 -52.8748,16.22515 -52.8461,73.65541c0.01435,27.9547 13.87609,52.32394 34.43552,65.40887l0,29.15247c0,3.48301 2.56858,6.30409 5.73985,6.30409l5.73985,0c3.17127,0 5.73985,-2.82108 5.73985,-6.30409l0,-21.37874c5.51026,1.56026 11.26446,2.46648 17.21956,2.46648c1.95155,0 3.83135,-0.28762 5.73985,-0.46493l0,19.3772c0,3.48301 2.56858,6.30409 5.73985,6.30409l5.73985,0c3.17127,0 5.73985,-2.82108 5.73985,-6.30409l0,-23.41575c5.10847,-1.99367 10.00169,-4.48772 14.4716,-7.68705c16.4088,-11.74531 34.98799,-19.32991 54.57523,-19.32991c9.14071,0 5.74344,-0.12214 8.26897,-0.30732l26.6939,53.75812c1.026,2.06065 2.97755,3.28601 5.04031,3.28601c0.46995,0 0.94708,-0.06304 1.41703,-0.197c2.54347,-0.70921 4.32283,-3.22691 4.32283,-6.10709c0,0 0.05022,-94.6559 -0.0574,-96.93326zm-40.12157,11.82805c-4.75331,0 -8.60978,-4.23556 -8.60978,-9.45613c0,-5.22451 3.85646,-9.45613 8.60978,-9.45613s8.60978,4.23162 8.60978,9.45613c0,5.22057 -3.85646,9.45613 -8.60978,9.45613zm28.69926,60.38136l-14.29941,-28.79393c5.42416,-2.29705 10.30662,-5.75248 14.29941,-10.23627l0,39.03019z" fill="#ffaaff"/>
  </g>
 </g>
</svg>