<svg width="600" height="462" xmlns="http://www.w3.org/2000/svg">

 <g>
  <title>Layer 1</title>
  <g stroke="null" id="svg_42">
   <path transform="rotate(0.13083013892173767 262.211883544942,146.99999999999017) " stroke="null" id="svg_41" d="m366.95297,132.10709c-1.15365,-23.72447 -20.93667,-41.51096 -43.00879,-41.51096l-3.40998,0c-19.22258,0 -37.9393,-6.36491 -53.76644,-18.11159c-15.28126,-11.34325 -34.95146,-16.302 -55.75712,-11.24141c-6.55431,1.59025 -53.63906,16.12966 -53.60995,73.22191c0.01456,27.79017 14.07666,52.016 34.93327,65.02391l0,28.9809c0,3.46251 2.60571,6.26699 5.82281,6.26699l5.82282,0c3.21711,0 5.82282,-2.80448 5.82282,-6.26699l0,-21.25292c5.5899,1.55108 11.42728,2.45196 17.46845,2.45196c1.97976,0 3.88673,-0.28593 5.82282,-0.46219l0,19.26315c0,3.46251 2.60571,6.26699 5.82281,6.26699l5.82282,0c3.21711,0 5.82282,-2.80448 5.82282,-6.26699l0,-23.27794c5.18231,-1.98193 10.14626,-4.46131 14.68078,-7.64181c16.64598,-11.67618 35.49371,-19.21615 55.36407,-19.21615c9.27284,0 5.82646,-0.12142 8.3885,-0.30551l27.07974,53.44173c1.04083,2.04852 3.02058,3.26667 5.11316,3.26667c0.47674,0 0.96076,-0.06267 1.43751,-0.19584c2.58023,-0.70504 4.38531,-3.20792 4.38531,-6.07115c0,0 0.05095,-94.09881 -0.05823,-96.36276zm-40.7015,11.75843c-4.82202,0 -8.73422,-4.21063 -8.73422,-9.40048c0,-5.19376 3.9122,-9.40048 8.73422,-9.40048s8.73423,4.20672 8.73423,9.40048c0,5.18985 -3.9122,9.40048 -8.73423,9.40048zm29.11409,60.02599l-14.50609,-28.62446c5.50256,-2.28354 10.45559,-5.71863 14.50609,-10.17602l0,38.80048z" fill="#005fbf"/>
  </g>
  <g stroke="null" transform="rotate(0.13540709018707275 377,294.9999999999823) " id="svg_8">
   <path stroke="null" id="svg_7" d="m481.7411,280.1071c-1.15365,-23.72446 -20.93667,-41.51096 -43.00878,-41.51096l-3.40999,0c-19.22258,0 -37.93929,-6.36491 -53.76644,-18.11159c-15.28126,-11.34325 -34.95146,-16.302 -55.75711,-11.24141c-6.55431,1.59025 -53.63906,16.12966 -53.60995,73.22191c0.01456,27.79017 14.07666,52.01599 34.93326,65.02391l0,28.9809c0,3.46251 2.60571,6.26699 5.82282,6.26699l5.82282,0c3.21711,0 5.82282,-2.80448 5.82282,-6.26699l0,-21.25292c5.5899,1.55108 11.42728,2.45196 17.46845,2.45196c1.97976,0 3.88673,-0.28593 5.82282,-0.46219l0,19.26315c0,3.46251 2.60571,6.26699 5.82282,6.26699l5.82282,0c3.21711,0 5.82282,-2.80448 5.82282,-6.26699l0,-23.27794c5.18231,-1.98193 10.14626,-4.46131 14.68078,-7.64181c16.64598,-11.67618 35.49371,-19.21615 55.36407,-19.21615c9.27284,0 5.82646,-0.12142 8.3885,-0.30552l27.07974,53.44173c1.04083,2.04852 3.02059,3.26667 5.11316,3.26667c0.47674,0 0.96076,-0.06267 1.43751,-0.19584c2.58024,-0.70504 4.38531,-3.20791 4.38531,-6.07114c0,0 0.05095,-94.09881 -0.05823,-96.36276zm-40.70149,11.75843c-4.82202,0 -8.73423,-4.21063 -8.73423,-9.40048c0,-5.19377 3.91221,-9.40048 8.73423,-9.40048s8.73423,4.20672 8.73423,9.40048c0,5.18985 -3.91221,9.40048 -8.73423,9.40048zm29.11409,60.02599l-14.50609,-28.62446c5.50256,-2.28353 10.4556,-5.71863 14.50609,-10.17602l0,38.80049z" fill="#ffaaff"/>
  </g>
  <g transform="rotate(-0.9324547052383423 134.21188354491284,316.00000000000045) " stroke="null" id="svg_40">
   <path transform="rotate(0.13083013892173767 134.21188354489942,316.00000000000307) " stroke="null" id="svg_39" d="m238.95297,301.10709c-1.15365,-23.72447 -20.93667,-41.51096 -43.00879,-41.51096l-3.40998,0c-19.22258,0 -37.9393,-6.36491 -53.76644,-18.11159c-15.28126,-11.34325 -34.95146,-16.302 -55.75712,-11.24141c-6.55431,1.59025 -53.63906,16.12966 -53.60995,73.22191c0.01456,27.79017 14.07666,52.016 34.93327,65.02391l0,28.9809c0,3.46251 2.60571,6.26699 5.82281,6.26699l5.82282,0c3.21711,0 5.82282,-2.80448 5.82282,-6.26699l0,-21.25292c5.5899,1.55108 11.42728,2.45196 17.46845,2.45196c1.97976,0 3.88673,-0.28593 5.82282,-0.46219l0,19.26315c0,3.46251 2.60571,6.26699 5.82281,6.26699l5.82282,0c3.21711,0 5.82282,-2.80448 5.82282,-6.26699l0,-23.27794c5.18231,-1.98193 10.14626,-4.46131 14.68078,-7.64181c16.64598,-11.67618 35.49371,-19.21615 55.36407,-19.21615c9.27284,0 5.82646,-0.12142 8.3885,-0.30551l27.07974,53.44173c1.04083,2.04852 3.02058,3.26667 5.11316,3.26667c0.47674,0 0.96076,-0.06267 1.43751,-0.19584c2.58023,-0.70504 4.38531,-3.20792 4.38531,-6.07115c0,0 0.05095,-94.09881 -0.05823,-96.36276zm-40.7015,11.75843c-4.82202,0 -8.73422,-4.21063 -8.73422,-9.40048c0,-5.19376 3.9122,-9.40048 8.73422,-9.40048s8.73423,4.20672 8.73423,9.40048c0,5.18985 -3.9122,9.40048 -8.73423,9.40048zm29.11409,60.02599l-14.50609,-28.62446c5.50256,-2.28354 10.45559,-5.71863 14.50609,-10.17602l0,38.80048z" fill="#ffaa56"/>
  </g>
  <g stroke="null" id="svg_47">
   <path stroke="null" id="svg_46" d="m419.12011,7.83984l-102.24023,0c-9.39865,0 -17.04004,7.30506 -17.04004,16.29004l0,73.30518c0,8.98497 7.64139,16.29004 17.04004,16.29004l25.56006,0l0,21.38068c0,1.80718 1.54425,3.05438 3.19501,3.05438c0.639,0 1.30463,-0.17817 1.89038,-0.61088l33.2547,-23.82418l38.34009,0c9.39865,0 17.04004,-7.30506 17.04004,-16.29004l0,-73.30518c0,-8.98497 -7.64139,-16.29004 -17.04004,-16.29004zm4.26001,89.59521c0,2.23988 -1.917,4.07251 -4.26001,4.07251l-42.6001,0l-3.40801,2.44351l-17.89204,12.82841l0,-15.27191l-38.34009,0c-2.34301,0 -4.26001,-1.83263 -4.26001,-4.07251l0,-73.30518c0,-2.23988 1.917,-4.07251 4.26001,-4.07251l102.24023,0c2.34301,0 4.26001,1.83263 4.26001,4.07251l0,73.30518z" fill="#0000bf"/>
  </g>
  <g stroke="null" id="svg_49">
   <path stroke="null" id="svg_48" d="m555.12011,142.83984l-102.24023,0c-9.39864,0 -17.04004,7.30507 -17.04004,16.29004l0,73.30518c0,8.98497 7.6414,16.29004 17.04004,16.29004l25.56006,0l0,21.38067c0,1.80718 1.54425,3.05439 3.19501,3.05439c0.639,0 1.30463,-0.17818 1.89038,-0.61088l33.2547,-23.82418l38.34008,0c9.39865,0 17.04004,-7.30507 17.04004,-16.29004l0,-73.30518c0,-8.98497 -7.64139,-16.29004 -17.04004,-16.29004zm4.26001,89.59522c0,2.23988 -1.917,4.07251 -4.26001,4.07251l-42.60009,0l-3.40801,2.4435l-17.89204,12.82841l0,-15.27191l-38.34009,0c-2.343,0 -4.26001,-1.83263 -4.26001,-4.07251l0,-73.30518c0,-2.23988 1.91701,-4.07251 4.26001,-4.07251l102.24023,0c2.34301,0 4.26001,1.83263 4.26001,4.07251l0,73.30518z" fill="#ff56ff"/>
  </g>
  <g stroke="null" id="svg_51">
   <path stroke="null" id="svg_50" d="m257.12011,138.83984l-102.24023,0c-9.39864,0 -17.04004,7.30507 -17.04004,16.29004l0,73.30518c0,8.98497 7.6414,16.29004 17.04004,16.29004l25.56006,0l0,21.38067c0,1.80718 1.54425,3.05439 3.19501,3.05439c0.639,0 1.30463,-0.17818 1.89038,-0.61088l33.2547,-23.82418l38.34008,0c9.39865,0 17.04004,-7.30507 17.04004,-16.29004l0,-73.30518c0,-8.98497 -7.64139,-16.29004 -17.04004,-16.29004zm4.26001,89.59522c0,2.23988 -1.917,4.07251 -4.26001,4.07251l-42.60009,0l-3.40801,2.4435l-17.89204,12.82841l0,-15.27191l-38.34009,0c-2.343,0 -4.26001,-1.83263 -4.26001,-4.07251l0,-73.30518c0,-2.23988 1.91701,-4.07251 4.26001,-4.07251l102.24023,0c2.34301,0 4.26001,1.83263 4.26001,4.07251l0,73.30518z" fill="#ff7f00"/>
  </g>
 </g>
</svg>