<?xml version="1.0" encoding="UTF-8"?>
<svg xmlns="http://www.w3.org/2000/svg" xmlns:xlink="http://www.w3.org/1999/xlink" width="224.87999pt" height="149.999998pt" viewBox="0 0 224.87999 149.999998" version="1.2">
<g id="surface1">
<path style=" stroke:none;fill-rule:nonzero;fill:rgb(54.899597%,32.159424%,100%);fill-opacity:1;" d="M 164.734375 135.207031 L 60.386719 135.207031 C 56.085938 135.207031 52.585938 131.703125 52.585938 127.40625 L 52.585938 23.058594 C 52.585938 18.761719 56.085938 15.257812 60.386719 15.257812 L 164.734375 15.257812 C 169.03125 15.257812 172.53125 18.761719 172.53125 23.058594 L 172.53125 127.40625 C 172.53125 131.703125 169.03125 135.207031 164.734375 135.207031 Z M 164.734375 135.207031 "/>
<path style=" stroke:none;fill-rule:nonzero;fill:rgb(65.098572%,65.098572%,65.098572%);fill-opacity:1;" d="M 86.476562 49.230469 L 65.3125 49.230469 C 64.4375 49.230469 63.730469 48.519531 63.730469 47.648438 L 63.730469 26.484375 C 63.730469 25.609375 64.4375 24.902344 65.3125 24.902344 L 86.476562 24.902344 C 87.347656 24.902344 88.058594 25.609375 88.058594 26.484375 L 88.058594 47.648438 C 88.058594 48.519531 87.347656 49.230469 86.476562 49.230469 Z M 86.476562 49.230469 "/>
<path style=" stroke:none;fill-rule:nonzero;fill:rgb(65.098572%,65.098572%,65.098572%);fill-opacity:1;" d="M 123.046875 49.230469 L 101.882812 49.230469 C 101.011719 49.230469 100.300781 48.519531 100.300781 47.648438 L 100.300781 26.484375 C 100.300781 25.609375 101.011719 24.902344 101.882812 24.902344 L 123.046875 24.902344 C 123.917969 24.902344 124.628906 25.609375 124.628906 26.484375 L 124.628906 47.648438 C 124.628906 48.519531 123.917969 49.230469 123.046875 49.230469 Z M 123.046875 49.230469 "/>
<path style=" stroke:none;fill-rule:nonzero;fill:rgb(85.099792%,85.099792%,85.099792%);fill-opacity:1;" d="M 158.757812 49.230469 L 137.59375 49.230469 C 136.722656 49.230469 136.011719 48.519531 136.011719 47.648438 L 136.011719 26.484375 C 136.011719 25.609375 136.722656 24.902344 137.59375 24.902344 L 158.757812 24.902344 C 159.632812 24.902344 160.339844 25.609375 160.339844 26.484375 L 160.339844 47.648438 C 160.339844 48.519531 159.632812 49.230469 158.757812 49.230469 Z M 158.757812 49.230469 "/>
<path style=" stroke:none;fill-rule:nonzero;fill:rgb(85.099792%,85.099792%,85.099792%);fill-opacity:1;" d="M 86.476562 87.1875 L 65.3125 87.1875 C 64.4375 87.1875 63.730469 86.476562 63.730469 85.605469 L 63.730469 64.441406 C 63.730469 63.570312 64.4375 62.859375 65.3125 62.859375 L 86.476562 62.859375 C 87.347656 62.859375 88.058594 63.570312 88.058594 64.441406 L 88.058594 85.605469 C 88.058594 86.476562 87.347656 87.1875 86.476562 87.1875 Z M 86.476562 87.1875 "/>
<path style=" stroke:none;fill-rule:nonzero;fill:rgb(65.098572%,65.098572%,65.098572%);fill-opacity:1;" d="M 123.046875 87.1875 L 101.882812 87.1875 C 101.011719 87.1875 100.300781 86.476562 100.300781 85.605469 L 100.300781 64.441406 C 100.300781 63.570312 101.011719 62.859375 101.882812 62.859375 L 123.046875 62.859375 C 123.917969 62.859375 124.628906 63.570312 124.628906 64.441406 L 124.628906 85.605469 C 124.628906 86.476562 123.917969 87.1875 123.046875 87.1875 Z M 123.046875 87.1875 "/>
<path style=" stroke:none;fill-rule:nonzero;fill:rgb(65.098572%,65.098572%,65.098572%);fill-opacity:1;" d="M 158.757812 87.300781 L 137.59375 87.300781 C 136.722656 87.300781 136.011719 86.589844 136.011719 85.71875 L 136.011719 64.554688 C 136.011719 63.683594 136.722656 62.972656 137.59375 62.972656 L 158.757812 62.972656 C 159.632812 62.972656 160.339844 63.683594 160.339844 64.554688 L 160.339844 85.71875 C 160.339844 86.589844 159.632812 87.300781 158.757812 87.300781 Z M 158.757812 87.300781 "/>
<path style=" stroke:none;fill-rule:nonzero;fill:rgb(65.098572%,65.098572%,65.098572%);fill-opacity:1;" d="M 86.476562 121.511719 L 65.3125 121.511719 C 64.4375 121.511719 63.730469 120.804688 63.730469 119.929688 L 63.730469 98.765625 C 63.730469 97.894531 64.4375 97.183594 65.3125 97.183594 L 86.476562 97.183594 C 87.347656 97.183594 88.058594 97.894531 88.058594 98.765625 L 88.058594 119.929688 C 88.058594 120.804688 87.347656 121.511719 86.476562 121.511719 Z M 86.476562 121.511719 "/>
<path style=" stroke:none;fill-rule:nonzero;fill:rgb(65.098572%,65.098572%,65.098572%);fill-opacity:1;" d="M 123.046875 121.511719 L 101.882812 121.511719 C 101.011719 121.511719 100.300781 120.804688 100.300781 119.929688 L 100.300781 98.765625 C 100.300781 97.894531 101.011719 97.183594 101.882812 97.183594 L 123.046875 97.183594 C 123.917969 97.183594 124.628906 97.894531 124.628906 98.765625 L 124.628906 119.929688 C 124.628906 120.804688 123.917969 121.511719 123.046875 121.511719 Z M 123.046875 121.511719 "/>
<path style=" stroke:none;fill-rule:nonzero;fill:rgb(65.098572%,65.098572%,65.098572%);fill-opacity:1;" d="M 158.757812 121.511719 L 137.59375 121.511719 C 136.722656 121.511719 136.011719 120.804688 136.011719 119.929688 L 136.011719 98.765625 C 136.011719 97.894531 136.722656 97.183594 137.59375 97.183594 L 158.757812 97.183594 C 159.632812 97.183594 160.339844 97.894531 160.339844 98.765625 L 160.339844 119.929688 C 160.339844 120.804688 159.632812 121.511719 158.757812 121.511719 Z M 158.757812 121.511719 "/>
</g>
</svg>
