<?xml version="1.0" encoding="UTF-8"?>
<svg xmlns="http://www.w3.org/2000/svg" xmlns:xlink="http://www.w3.org/1999/xlink" width="224.87999pt" height="149.999998pt" viewBox="0 0 224.87999 149.999998" version="1.2">
<defs>
<clipPath id="clip1">
  <path d="M 35.167969 51 L 68.152344 51 L 68.152344 113.953125 L 35.167969 113.953125 Z M 35.167969 51 "/>
</clipPath>
<clipPath id="clip2">
  <path d="M 77.359375 50.964844 L 131.332031 50.964844 L 131.332031 113.929688 L 77.359375 113.929688 Z M 77.359375 50.964844 "/>
</clipPath>
<clipPath id="clip3">
  <path d="M 141.675781 54.042969 L 192.648438 54.042969 L 192.648438 114 L 141.675781 114 Z M 141.675781 54.042969 "/>
</clipPath>
</defs>
<g id="surface1">
<g clip-path="url(#clip1)" clip-rule="nonzero">
<path style=" stroke:none;fill-rule:nonzero;fill:rgb(54.899597%,32.159424%,100%);fill-opacity:1;" d="M 66.777344 51.019531 L 53.890625 51.019531 C 53.632812 51.019531 53.382812 51.089844 53.164062 51.226562 L 35.820312 61.941406 C 35.414062 62.191406 35.167969 62.632812 35.167969 63.101562 L 35.167969 73.5 C 35.167969 73.996094 35.441406 74.453125 35.875 74.695312 C 36.308594 74.9375 36.84375 74.925781 37.269531 74.664062 L 54.410156 64.089844 L 54.410156 112.554688 C 54.410156 113.308594 55.023438 113.921875 55.78125 113.921875 L 66.777344 113.921875 C 67.535156 113.921875 68.152344 113.308594 68.152344 112.554688 L 68.152344 52.386719 C 68.152344 51.632812 67.535156 51.019531 66.777344 51.019531 Z M 66.777344 51.019531 "/>
</g>
<g clip-path="url(#clip2)" clip-rule="nonzero">
<path style=" stroke:none;fill-rule:nonzero;fill:rgb(49.409485%,85.099792%,34.118652%);fill-opacity:1;" d="M 102.886719 79.398438 L 81.414062 99.339844 L 81.414062 113.929688 L 131.328125 113.929688 L 131.328125 95.199219 L 114.621094 95.199219 L 119.488281 90.777344 C 125.996094 84.855469 130.015625 79.503906 130.015625 70.90625 C 130.015625 64.949219 127.488281 59.882812 122.761719 56.28125 C 118.210938 52.78125 112.023438 50.964844 104.84375 50.964844 C 92.578125 50.964844 83.121094 56.066406 78.214844 65.339844 L 77.359375 66.945312 L 95.277344 75.9375 L 96.0625 74.332031 C 97.449219 71.582031 100.007812 69.941406 102.992188 69.941406 C 106.867188 69.941406 106.867188 71.976562 106.867188 72.726562 C 106.867188 74.152344 106.550781 75.9375 102.886719 79.398438 Z M 102.886719 79.398438 "/>
</g>
<g clip-path="url(#clip3)" clip-rule="nonzero">
<path style=" stroke:none;fill-rule:nonzero;fill:rgb(85.099792%,85.099792%,85.099792%);fill-opacity:1;" d="M 180.855469 76.863281 L 189.660156 67.957031 L 189.660156 54.136719 L 145.007812 54.136719 L 145.007812 71.546875 L 162.40625 71.546875 L 156.628906 77.441406 L 156.628906 91.257812 L 165.667969 91.257812 C 170.527344 91.257812 170.527344 92.785156 170.527344 93.359375 C 170.527344 95.796875 165.9375 95.933594 165.019531 95.933594 C 160.265625 95.933594 155.167969 94.546875 151.019531 92.140625 L 149.390625 91.191406 L 141.675781 107.957031 L 143.035156 108.738281 C 148.847656 111.988281 157.308594 113.921875 165.667969 113.921875 C 174.230469 113.921875 181.265625 111.71875 186.054688 107.585938 C 190.339844 103.929688 192.648438 98.847656 192.648438 93.324219 C 192.648438 85.601562 188.300781 79.640625 180.855469 76.863281 Z M 180.855469 76.863281 "/>
</g>
</g>
</svg>
