<?xml version="1.0" encoding="UTF-8"?>
<svg xmlns="http://www.w3.org/2000/svg" xmlns:xlink="http://www.w3.org/1999/xlink" width="224.87999pt" height="149.999998pt" viewBox="0 0 224.87999 149.999998" version="1.2">
<defs>
<clipPath id="clip1">
  <path d="M 67.988281 30.546875 L 157.191406 30.546875 L 157.191406 119.75 L 67.988281 119.75 Z M 67.988281 30.546875 "/>
</clipPath>
</defs>
<g id="surface1">
<g clip-path="url(#clip1)" clip-rule="nonzero">
<path style=" stroke:none;fill-rule:nonzero;fill:rgb(54.899597%,32.159424%,100%);fill-opacity:1;" d="M 157.191406 109.839844 C 157.191406 115.3125 152.753906 119.75 147.277344 119.75 L 77.898438 119.75 C 72.425781 119.75 67.988281 115.3125 67.988281 109.839844 L 67.988281 40.460938 C 67.988281 34.984375 72.425781 30.546875 77.898438 30.546875 L 147.277344 30.546875 C 152.753906 30.546875 157.191406 34.984375 157.191406 40.460938 Z M 157.191406 109.839844 "/>
</g>
<path style=" stroke:none;fill-rule:nonzero;fill:rgb(100%,100%,100%);fill-opacity:1;" d="M 106.820312 68.527344 C 106.820312 70.269531 106.820312 72.953125 103.570312 72.953125 C 101.59375 72.953125 100.792969 71.871094 100.324219 70.082031 C 98.582031 72.152344 96.464844 73.234375 93.875 73.234375 C 87.519531 73.234375 82.671875 67.820312 82.671875 60.199219 C 82.671875 52.761719 87.660156 47.066406 93.875 47.066406 C 96.367188 47.066406 98.816406 48.054688 100.324219 50.171875 C 100.511719 48.523438 101.925781 47.347656 103.570312 47.347656 C 106.820312 47.347656 106.820312 50.03125 106.820312 51.773438 Z M 94.816406 67.023438 C 98.347656 67.023438 100.042969 63.445312 100.042969 60.199219 C 100.042969 56.949219 98.394531 53.28125 94.816406 53.28125 C 91.097656 53.28125 89.449219 56.949219 89.449219 60.199219 C 89.453125 63.445312 91.144531 67.023438 94.816406 67.023438 Z M 103.128906 94.242188 C 101.433594 94.242188 99.925781 92.921875 97.761719 92.921875 C 93.902344 92.921875 92.066406 96.359375 92.066406 99.84375 C 92.066406 103.1875 94.09375 106.667969 97.761719 106.667969 C 99.457031 106.667969 102 105.257812 102.800781 105.257812 C 104.398438 105.257812 105.71875 106.621094 105.71875 108.222656 C 105.71875 111.703125 99.878906 112.882812 97.433594 112.882812 C 90.136719 112.882812 85.289062 106.90625 85.289062 99.84375 C 85.289062 92.972656 90.28125 86.710938 97.433594 86.710938 C 100.117188 86.710938 105.71875 87.699219 105.71875 90.996094 C 105.714844 92.40625 104.726562 94.242188 103.128906 94.242188 Z M 118.351562 40.191406 C 118.351562 37.933594 119.761719 36.425781 121.738281 36.425781 C 123.71875 36.425781 125.128906 37.933594 125.128906 40.191406 L 125.128906 49.417969 C 126.917969 47.863281 129.222656 47.0625 131.578125 47.0625 C 138.875 47.0625 142.5 53.886719 142.5 60.476562 C 142.5 66.878906 138.171875 73.234375 131.339844 73.234375 C 129.035156 73.234375 126.402344 72.199219 125.128906 70.125 C 124.707031 71.914062 123.621094 72.953125 121.738281 72.953125 C 119.761719 72.953125 118.351562 71.445312 118.351562 69.183594 Z M 130.449219 67.023438 C 133.980469 67.023438 135.722656 63.351562 135.722656 60.199219 C 135.722656 56.996094 133.980469 53.28125 130.449219 53.28125 C 126.824219 53.28125 125.132812 56.667969 125.132812 59.960938 C 125.132812 63.257812 126.730469 67.023438 130.449219 67.023438 Z M 141.511719 108.832031 C 141.511719 111.09375 140.101562 112.601562 138.125 112.601562 C 136.238281 112.601562 135.15625 111.566406 134.734375 109.777344 C 133.460938 111.847656 130.824219 112.882812 128.523438 112.882812 C 121.695312 112.882812 117.363281 106.527344 117.363281 100.128906 C 117.363281 93.539062 120.988281 86.714844 128.285156 86.714844 C 130.636719 86.714844 132.945312 87.511719 134.734375 89.066406 L 134.734375 79.839844 C 134.734375 77.578125 136.144531 76.074219 138.125 76.074219 C 140.101562 76.074219 141.511719 77.578125 141.511719 79.839844 Z M 129.414062 92.921875 C 125.882812 92.921875 124.140625 96.640625 124.140625 99.84375 C 124.140625 102.996094 125.882812 106.667969 129.414062 106.667969 C 133.132812 106.667969 134.734375 102.902344 134.734375 99.609375 C 134.734375 96.3125 133.039062 92.921875 129.414062 92.921875 Z M 129.414062 92.921875 "/>
</g>
</svg>
